<svg width="1500" height="2000" viewBox="0 0 1500 2000" fill="none" xmlns="http://www.w3.org/2000/svg">
<g clip-path="url(#clip0_1_76)">
<rect width="1500" height="2000" transform="translate(1500 2000) rotate(-180)" fill="#0296C7"/>
<path d="M1352.88 959.263C1394.87 968.599 1459.79 953.428 1487 944.675L1487 1315.2C1373.29 1356.05 1320.81 1234.48 1306.23 1197.53C1291.65 1160.57 1258.61 1127.51 1258.61 1234.48C1258.61 1341.46 1352.88 1437.74 1398.56 1449.41C1435.1 1458.74 1472.75 1445.52 1487 1437.74L1487 1531.1C1227.51 1612.79 1194.46 1250.04 1183.77 1171.27C1173.08 1092.5 1142.95 1071.1 1092.41 1063.32C1041.88 1055.54 933.996 1118.75 931.081 1052.62C928.165 986.493 1004.94 992.328 1050.62 968.988C1096.3 945.648 1113.8 883.407 1171.14 874.655C1228.48 865.902 1300.4 947.593 1352.88 959.263Z" fill="#0077B6"/>
<path d="M99.7121 1616.03C46.0767 1615.25 2.22263 1630.57 -13 1638.33L-13 1744C82.2223 1730.43 99.7121 1763.39 191.048 1798.29C264.116 1826.21 352.342 1964.4 387.322 2030L467.969 2030C453.071 2015.78 432.213 1981.72 467.969 1959.23C503.726 1936.74 567.726 1997.04 595.256 2030L844 2030C841.085 1993.16 825.927 1918.9 788.616 1916.57C741.976 1913.66 477.686 1955.35 368.861 1822.53C260.035 1689.71 166.756 1617 99.7121 1616.03Z" fill="#0077B6"/>
<path fill-rule="evenodd" clip-rule="evenodd" d="M1500 1685.75C1475.04 1695.14 1411.51 1704.02 1357.06 1664.36C1289 1614.79 1195.65 1535.09 1131.47 1371.79C1067.3 1208.5 1007.98 1191.98 941.862 1208.5C875.742 1225.02 865.046 1299.87 871.852 1350.41C873.797 1364.86 876.537 1377.47 879.185 1389.67C885.804 1420.16 891.854 1448.03 883.521 1495.24C871.852 1561.33 738.638 1664.36 657.932 1664.36C577.226 1664.36 558.751 1605.07 543.193 1503.01C527.635 1400.95 478.044 1275.57 398.31 1236.69C362.658 1219.3 330.699 1213.38 304.347 1208.5C271.764 1202.47 247.752 1198.02 235.925 1175.45C214.552 1134.67 216.475 1125.9 247.512 984.345L247.594 983.971C278.71 842.06 328.3 574.763 219.395 495.06C110.49 415.356 47.2867 427.02 -13 445.488L-13 598.091C-9.11051 570.551 9.7534 536.272 54.0932 619.474C81.1392 670.225 110.732 710.098 134.85 742.594C160.156 776.691 179.435 802.666 183.418 824.564C191.197 867.332 160.081 900.38 98.822 880.94C49.8148 865.388 3.85439 818.732 -13 797.349L-13 1350.41C10.3368 1339.72 74.9018 1324.75 146.468 1350.41C235.925 1382.49 344.83 1444.69 398.31 1564.25C408.156 1586.26 417.145 1610.44 426.326 1635.14C467.017 1744.62 511.495 1864.29 651.125 1850.01C741.373 1840.79 790.249 1801.83 833.687 1767.2C872.619 1736.17 907.184 1708.62 963.254 1709.08C1081.88 1710.05 1056.6 1943.32 1042.99 2024H1325.95C1283.16 1958.88 1190.98 1815.99 1164.53 1765.45C1131.47 1702.27 1153.84 1664.36 1191.76 1664.36C1213.95 1664.36 1235.47 1690.99 1257.11 1717.75C1272.45 1736.73 1287.85 1755.77 1303.58 1765.45C1304.49 1766.01 1305.43 1766.59 1306.41 1767.19C1346.4 1791.86 1445.9 1853.23 1500 1785.86V1685.75ZM983.674 1489.41C977.516 1477.42 968.894 1444.7 983.674 1409.7C986.468 1403.09 988.928 1396.81 991.219 1390.96C1004.08 1358.12 1011.63 1338.86 1042.99 1350.41C1062.92 1357.75 1072.66 1386.86 1082.45 1416.09C1090.8 1441.05 1099.19 1466.1 1113.97 1477.74C1146.06 1503.01 1168.42 1528.29 1134.39 1537.03C1100.36 1545.78 1010.9 1524.4 983.674 1489.41Z" fill="#0077B6"/>
<path fill-rule="evenodd" clip-rule="evenodd" d="M-12.9998 30C-9.11141 42.3114 11.3027 71.5996 61.8518 90.2611L62.3698 90.4524C125.574 113.785 223.39 149.895 285.434 275.904C347.649 402.258 440.97 515.005 531.375 497.51C538.297 496.17 544.775 494.904 550.84 493.72C623.985 479.43 637.106 476.866 646.083 497.51C650.133 506.825 642.875 511.246 633.029 517.243C619.246 525.637 600.394 537.119 600.394 569.434C600.394 594.54 609.777 618.648 620.038 645.014C632.42 676.83 646.083 711.935 646.083 756.049C646.083 793.806 618.188 822.194 589.805 851.08C557.545 883.913 524.653 917.388 531.375 965.991C544.012 1057.35 579.007 1180.79 674.273 1273.13C682.71 1281.31 690.636 1288.93 698.065 1296.07C774.518 1369.58 798.296 1392.44 784.12 1450.02C768.566 1513.2 697.603 1497.65 655.802 1487.93C614.002 1478.21 581.923 1394.62 566.369 1328.53C550.816 1262.44 495.406 1180.79 438.052 1135.11C380.699 1089.43 307.791 1001.95 307.791 897.954C307.791 849.581 330.505 811.3 354.021 771.67C381.061 726.099 409.161 678.742 405.001 612.2C397.224 487.79 284.463 329.362 -12.9998 343.941L-12.9998 30ZM450.689 751.189C468.835 740.173 504.738 736.026 503.183 807.562C502.274 849.383 490.307 872.92 480.61 891.994C469.573 913.704 461.475 929.633 475.964 960.159C503.183 1017.5 516.793 1054.44 503.183 1069.99C489.573 1085.54 389.448 990.289 384.587 912.533C379.727 834.777 439.024 756.194 450.689 751.189Z" fill="#0077B6"/>
<path fill-rule="evenodd" clip-rule="evenodd" d="M1488 271.019V32.9435L997.97 31L972.691 65.0108C930.516 148.488 823.63 148.31 748.951 148.186C735.828 148.165 723.7 148.145 713.092 148.58C670.246 150.34 634.486 181.845 606.454 206.542C588.05 222.757 572.976 236.037 561.416 236.037C532.248 236.037 516.691 219.517 487.523 160.241C464.188 112.82 460.947 54.3217 462.243 31L120 31C144.307 85.4173 166.67 91.2477 245.424 106.796C324.179 122.343 349.459 163.156 360.154 256.443C370.849 349.73 399.045 435.243 475.855 435.243C526.089 435.243 575.076 397.42 616.015 365.811C637.674 349.088 657.081 334.104 673.228 327.38C719.898 307.945 818.098 302.115 818.098 415.808C818.098 479.328 785.322 517.672 756.393 551.515C733.542 578.248 713.092 602.172 713.092 633.477C713.092 663.379 717.065 680.159 720.861 696.189C726.071 718.187 730.946 738.774 724.759 789.927C719.095 836.76 699.522 874.598 682.362 907.772C667.121 937.236 653.783 963.021 653.783 988.161C653.783 1041.61 659.616 1060.07 681.979 1104.77C704.341 1149.47 776.29 1209.72 798.653 1158.22C810.459 1131.02 809.257 1125.77 805.777 1110.57C802.666 1096.98 797.735 1075.44 798.653 1023.14C800.027 944.831 858.739 925.765 912.613 908.271C934.947 901.018 956.449 894.035 972.691 883.214C994.969 868.37 1005.46 846.931 1015.42 826.597C1030.22 796.349 1043.83 768.549 1093.25 768.549C1135.2 768.549 1166.88 783.82 1198.08 798.86C1228.34 813.452 1258.16 827.825 1296.46 827.825C1358.69 827.825 1450.08 802.56 1488 789.927V614.043C1277.02 724.821 1176.87 591.693 1156.45 562.54C1136.03 533.388 1117.56 530.473 1075.75 562.54C1064.96 570.819 1052.29 583.502 1038.85 596.944C1000.26 635.569 955.406 680.46 930.883 645.138C914.48 621.511 935.182 600.516 959.612 575.742C984.415 550.589 1013.06 521.54 1010.61 481.886C1006.72 418.918 1028.44 379.854 1039.78 368.193C1097.75 304.157 1165.29 308.897 1236.78 313.914C1256.41 315.292 1276.35 316.691 1296.46 316.691C1371.13 316.691 1455.27 286.243 1488 271.019ZM820.043 834.627C855.045 850.174 892.964 785.068 903.659 766.605C903.659 673.318 867.685 678.177 833.655 695.668C799.625 713.16 785.041 819.079 820.043 834.627ZM959.079 468.282C947.736 471.845 924.66 486.162 923.104 514.926C921.16 550.88 972.691 523.671 975.608 488.689C977.941 460.703 965.561 463.424 959.079 468.282Z" fill="#0077B6"/>
<path d="M1352.88 929.263C1394.87 938.599 1459.79 923.428 1487 914.675L1487 1285.2C1373.29 1326.05 1320.81 1204.48 1306.23 1167.53C1291.65 1130.57 1258.61 1097.51 1258.61 1204.48C1258.61 1311.46 1352.88 1407.74 1398.56 1419.41C1435.1 1428.74 1472.75 1415.52 1487 1407.74L1487 1501.1C1227.51 1582.79 1194.46 1220.04 1183.77 1141.27C1173.08 1062.5 1142.95 1041.1 1092.41 1033.32C1041.88 1025.54 933.996 1088.75 931.081 1022.62C928.165 956.493 1004.94 962.328 1050.62 938.988C1096.3 915.648 1113.8 853.407 1171.14 844.655C1228.48 835.902 1300.4 917.593 1352.88 929.263Z" fill="#04B4D8"/>
<path d="M99.7121 1586.03C46.0767 1585.25 2.22263 1600.57 -13 1608.33L-13 1714C82.2223 1700.43 99.7121 1733.39 191.048 1768.29C264.116 1796.21 352.342 1934.4 387.322 2000L467.969 2000C453.071 1985.78 432.213 1951.72 467.969 1929.23C503.726 1906.74 567.726 1967.04 595.256 2000L844 2000C841.085 1963.16 825.927 1888.9 788.616 1886.57C741.976 1883.66 477.686 1925.35 368.861 1792.53C260.035 1659.71 166.756 1587 99.7121 1586.03Z" fill="#04B4D8"/>
<path fill-rule="evenodd" clip-rule="evenodd" d="M1500 1655.75C1475.04 1665.14 1411.51 1674.02 1357.06 1634.36C1289 1584.79 1195.65 1505.09 1131.47 1341.79C1067.3 1178.5 1007.98 1161.98 941.862 1178.5C875.742 1195.02 865.046 1269.87 871.852 1320.41C873.797 1334.86 876.537 1347.47 879.185 1359.67C885.804 1390.16 891.854 1418.03 883.521 1465.24C871.852 1531.33 738.638 1634.36 657.932 1634.36C577.226 1634.36 558.751 1575.07 543.193 1473.01C527.635 1370.95 478.044 1245.57 398.31 1206.69C362.658 1189.3 330.699 1183.38 304.347 1178.5C271.764 1172.47 247.752 1168.02 235.925 1145.45C214.552 1104.67 216.475 1095.9 247.512 954.345L247.594 953.971C278.71 812.06 328.3 544.763 219.395 465.06C110.49 385.356 47.2867 397.02 -13 415.488L-13 568.091C-9.11051 540.551 9.7534 506.272 54.0932 589.474C81.1392 640.225 110.732 680.098 134.85 712.594C160.156 746.691 179.435 772.666 183.418 794.564C191.197 837.332 160.081 870.38 98.822 850.94C49.8148 835.388 3.85439 788.732 -13 767.349L-13 1320.41C10.3368 1309.72 74.9018 1294.75 146.468 1320.41C235.925 1352.49 344.83 1414.69 398.31 1534.25C408.156 1556.26 417.145 1580.44 426.326 1605.14C467.017 1714.62 511.495 1834.29 651.125 1820.01C741.373 1810.79 790.249 1771.83 833.687 1737.2C872.619 1706.17 907.184 1678.62 963.254 1679.08C1081.88 1680.05 1056.6 1913.32 1042.99 1994H1325.95C1283.16 1928.88 1190.98 1785.99 1164.53 1735.45C1131.47 1672.27 1153.84 1634.36 1191.76 1634.36C1213.95 1634.36 1235.47 1660.99 1257.11 1687.75C1272.45 1706.73 1287.85 1725.77 1303.58 1735.45C1304.49 1736.01 1305.43 1736.59 1306.41 1737.19C1346.4 1761.86 1445.9 1823.23 1500 1755.86V1655.75ZM983.674 1459.41C977.516 1447.42 968.894 1414.7 983.674 1379.7C986.468 1373.09 988.928 1366.81 991.219 1360.96C1004.08 1328.12 1011.63 1308.86 1042.99 1320.41C1062.92 1327.75 1072.66 1356.86 1082.45 1386.09C1090.8 1411.05 1099.19 1436.1 1113.97 1447.74C1146.06 1473.01 1168.42 1498.29 1134.39 1507.03C1100.36 1515.78 1010.9 1494.4 983.674 1459.41Z" fill="#04B4D8"/>
<path fill-rule="evenodd" clip-rule="evenodd" d="M-12.9998 0C-9.11141 12.3114 11.3027 41.5996 61.8518 60.2611L62.3698 60.4524C125.574 83.7849 223.39 119.895 285.434 245.904C347.649 372.258 440.97 485.005 531.375 467.51C538.297 466.17 544.775 464.904 550.84 463.72C623.985 449.43 637.106 446.866 646.083 467.51C650.133 476.825 642.875 481.246 633.029 487.243C619.246 495.637 600.394 507.119 600.394 539.434C600.394 564.54 609.777 588.648 620.038 615.014C632.42 646.83 646.083 681.935 646.083 726.049C646.083 763.806 618.188 792.194 589.805 821.08C557.545 853.913 524.653 887.388 531.375 935.991C544.012 1027.35 579.007 1150.79 674.273 1243.13C682.71 1251.31 690.636 1258.93 698.065 1266.07C774.518 1339.58 798.296 1362.44 784.12 1420.02C768.566 1483.2 697.603 1467.65 655.802 1457.93C614.002 1448.21 581.923 1364.62 566.369 1298.53C550.816 1232.44 495.406 1150.79 438.052 1105.11C380.699 1059.43 307.791 971.953 307.791 867.954C307.791 819.581 330.505 781.3 354.021 741.67C381.061 696.099 409.161 648.742 405.001 582.2C397.224 457.79 284.463 299.362 -12.9998 313.941L-12.9998 0ZM450.689 721.189C468.835 710.173 504.738 706.026 503.183 777.562C502.274 819.383 490.307 842.92 480.61 861.994C469.573 883.704 461.475 899.633 475.964 930.159C503.183 987.504 516.793 1024.44 503.183 1039.99C489.573 1055.54 389.448 960.289 384.587 882.533C379.727 804.777 439.024 726.194 450.689 721.189Z" fill="#04B4D8"/>
<path fill-rule="evenodd" clip-rule="evenodd" d="M1488 241.019V2.94353L997.97 1.00004L972.691 35.0108C930.516 118.488 823.63 118.31 748.951 118.186C735.828 118.165 723.7 118.145 713.092 118.58C670.246 120.34 634.486 151.845 606.454 176.542C588.05 192.757 572.976 206.037 561.416 206.037C532.248 206.037 516.691 189.517 487.523 130.241C464.188 82.8203 460.947 24.3217 462.243 1.00001L120 1C144.307 55.4173 166.67 61.2477 245.424 76.7955C324.179 92.3433 349.459 133.156 360.154 226.443C370.849 319.73 399.045 405.243 475.855 405.243C526.089 405.243 575.076 367.42 616.015 335.811C637.674 319.088 657.081 304.104 673.228 297.38C719.898 277.945 818.098 272.115 818.098 385.808C818.098 449.328 785.322 487.672 756.393 521.515C733.542 548.248 713.092 572.172 713.092 603.477C713.092 633.379 717.065 650.159 720.861 666.189C726.071 688.187 730.946 708.774 724.759 759.927C719.095 806.76 699.522 844.598 682.362 877.772C667.121 907.236 653.783 933.021 653.783 958.161C653.783 1011.61 659.616 1030.07 681.979 1074.77C704.341 1119.47 776.29 1179.72 798.653 1128.22C810.459 1101.02 809.257 1095.77 805.777 1080.57C802.666 1066.98 797.735 1045.44 798.653 993.144C800.027 914.831 858.739 895.765 912.613 878.271C934.947 871.018 956.449 864.035 972.691 853.214C994.969 838.37 1005.46 816.931 1015.42 796.597C1030.22 766.349 1043.83 738.549 1093.25 738.549C1135.2 738.549 1166.88 753.82 1198.08 768.86C1228.34 783.452 1258.16 797.825 1296.46 797.825C1358.69 797.825 1450.08 772.56 1488 759.927V584.043C1277.02 694.821 1176.87 561.693 1156.45 532.54C1136.03 503.388 1117.56 500.473 1075.75 532.54C1064.96 540.819 1052.29 553.502 1038.85 566.944C1000.26 605.569 955.406 650.46 930.883 615.138C914.48 591.511 935.182 570.516 959.612 545.742C984.415 520.589 1013.06 491.54 1010.61 451.886C1006.72 388.918 1028.44 349.854 1039.78 338.193C1097.75 274.157 1165.29 278.897 1236.78 283.914C1256.41 285.292 1276.35 286.691 1296.46 286.691C1371.13 286.691 1455.27 256.243 1488 241.019ZM820.043 804.627C855.045 820.174 892.964 755.068 903.659 736.605C903.659 643.318 867.685 648.177 833.655 665.668C799.625 683.16 785.041 789.079 820.043 804.627ZM959.079 438.282C947.736 441.845 924.66 456.162 923.104 484.926C921.16 520.88 972.691 493.671 975.608 458.689C977.941 430.703 965.561 433.424 959.079 438.282Z" fill="#04B4D8"/>
</g>
<defs>
<clipPath id="clip0_1_76">
<rect width="1500" height="2000" fill="white" transform="translate(1500 2000) rotate(-180)"/>
</clipPath>
</defs>
</svg>
