<svg width="1500" height="2000" viewBox="0 0 1500 2000" fill="none" xmlns="http://www.w3.org/2000/svg">
<g clip-path="url(#clip0_5_20122)">
<rect width="1500" height="2000" transform="translate(1500 2000) rotate(-180)" fill="#FFFAF0"/>
<path d="M-1.09827e-05 716L-6.75452e-05 2010L1142.49 2010C1142.49 2010 1238.42 1542.24 876.461 1198.82C541.747 881.306 364.562 980.865 -1.09827e-05 716Z" fill="#FFE8D4"/>
<path d="M-5.27627e-05 2010L-2.40443e-05 1353C-2.40443e-05 1353 155.156 1427.22 308.729 1461.44C462.302 1495.67 703.259 1673.9 675.851 2010L-5.27627e-05 2010V2010Z" fill="#FFD2B4"/>
<path d="M39.9164 -2.98671C39.9164 168.013 370.254 144.888 437.283 268.952C504.313 393.015 698.031 398.511 857.417 463.692C1016.8 528.874 1061.12 619.296 1076.39 833.94C1091.62 1047.9 1426 1033 1507.28 1436L1507.28 -2.98639L39.9164 -2.98671Z" fill="#D2D5EB"/>
<circle cx="352.569" cy="183.755" r="21.0767" transform="rotate(-135 352.569 183.755)" fill="white"/>
<circle cx="531.411" cy="4.91174" r="21.0767" transform="rotate(-135 531.411 4.91174)" fill="white"/>
<circle cx="441.99" cy="94.3336" r="21.0767" transform="rotate(-135 441.99 94.3336)" fill="white"/>
<circle cx="531.411" cy="362.598" r="21.0767" transform="rotate(-135 531.411 362.598)" fill="white"/>
<circle cx="889.094" cy="4.91174" r="21.0767" transform="rotate(-135 889.094 4.91174)" fill="white"/>
<circle cx="710.253" cy="183.754" r="21.0767" transform="rotate(-135 710.253 183.754)" fill="white"/>
<circle cx="620.831" cy="273.174" r="21.0767" transform="rotate(-135 620.831 273.174)" fill="white"/>
<circle cx="799.674" cy="94.3336" r="21.0767" transform="rotate(-135 799.674 94.3336)" fill="white"/>
<circle cx="84.064" cy="631.404" r="21.0767" transform="rotate(-135 84.064 631.404)" fill="white"/>
<circle cx="262.906" cy="452.56" r="21.0767" transform="rotate(-135 262.906 452.56)" fill="white"/>
<circle cx="173.485" cy="541.983" r="21.0767" transform="rotate(-135 173.485 541.983)" fill="white"/>
<circle cx="-5.35767" cy="720.824" r="21.0767" transform="rotate(-135 -5.35767 720.824)" fill="white"/>
<circle cx="352.327" cy="363.141" r="21.0767" transform="rotate(-135 352.327 363.141)" fill="white"/>
<circle cx="173.484" cy="720.824" r="21.0767" transform="rotate(-135 173.484 720.824)" fill="white"/>
<circle cx="-5.35718" cy="899.668" r="21.0767" transform="rotate(-135 -5.35718 899.668)" fill="white"/>
<circle cx="352.327" cy="541.983" r="21.0767" transform="rotate(-135 352.327 541.983)" fill="white"/>
<circle cx="262.906" cy="631.404" r="21.0767" transform="rotate(-135 262.906 631.404)" fill="white"/>
<circle cx="84.064" cy="810.247" r="21.0767" transform="rotate(-135 84.064 810.247)" fill="white"/>
<circle cx="441.748" cy="452.56" r="21.0767" transform="rotate(-135 441.748 452.56)" fill="white"/>
<circle cx="441.989" cy="273.175" r="21.0767" transform="rotate(-135 441.989 273.175)" fill="white"/>
<circle cx="620.831" cy="94.3326" r="21.0767" transform="rotate(-135 620.831 94.3326)" fill="white"/>
<circle cx="531.411" cy="183.754" r="21.0767" transform="rotate(-135 531.411 183.754)" fill="white"/>
<circle cx="710.253" cy="4.91174" r="21.0767" transform="rotate(-135 710.253 4.91174)" fill="white"/>
<circle cx="-5.35693" cy="541.983" r="21.0767" transform="rotate(-135 -5.35693 541.983)" fill="white"/>
<circle cx="173.485" cy="363.141" r="21.0767" transform="rotate(-135 173.485 363.141)" fill="white"/>
<circle cx="84.0637" cy="452.56" r="21.0767" transform="rotate(-135 84.0637 452.56)" fill="white"/>
<circle cx="262.906" cy="273.719" r="21.0767" transform="rotate(-135 262.906 273.719)" fill="white"/>
<circle cx="1157.57" cy="1584.76" r="21.0767" transform="rotate(-135 1157.57 1584.76)" fill="white"/>
<circle cx="1515.25" cy="1227.07" r="21.0767" transform="rotate(-135 1515.25 1227.07)" fill="white"/>
<circle cx="1336.41" cy="1405.91" r="21.0767" transform="rotate(-135 1336.41 1405.91)" fill="white"/>
<circle cx="1246.99" cy="1495.33" r="21.0767" transform="rotate(-135 1246.99 1495.33)" fill="white"/>
<circle cx="1425.83" cy="1316.49" r="21.0767" transform="rotate(-135 1425.83 1316.49)" fill="white"/>
<circle cx="1336.41" cy="1763.6" r="21.0767" transform="rotate(-135 1336.41 1763.6)" fill="white"/>
<circle cx="1515.25" cy="1584.75" r="21.0767" transform="rotate(-135 1515.25 1584.75)" fill="white"/>
<circle cx="1425.83" cy="1674.18" r="21.0767" transform="rotate(-135 1425.83 1674.18)" fill="white"/>
<circle cx="1067.91" cy="1853.56" r="21.0767" transform="rotate(-135 1067.91 1853.56)" fill="white"/>
<circle cx="978.485" cy="1942.98" r="21.0767" transform="rotate(-135 978.485 1942.98)" fill="white"/>
<circle cx="1157.33" cy="1764.14" r="21.0767" transform="rotate(-135 1157.33 1764.14)" fill="white"/>
<circle cx="1157.33" cy="1942.98" r="21.0767" transform="rotate(-135 1157.33 1942.98)" fill="white"/>
<circle cx="1246.75" cy="1853.56" r="21.0767" transform="rotate(-135 1246.75 1853.56)" fill="white"/>
<circle cx="1246.99" cy="1674.18" r="21.0767" transform="rotate(-135 1246.99 1674.18)" fill="white"/>
<circle cx="1425.83" cy="1495.33" r="21.0767" transform="rotate(-135 1425.83 1495.33)" fill="white"/>
<circle cx="1336.41" cy="1584.75" r="21.0767" transform="rotate(-135 1336.41 1584.75)" fill="white"/>
<circle cx="1515.25" cy="1405.91" r="21.0767" transform="rotate(-135 1515.25 1405.91)" fill="white"/>
<circle cx="799.643" cy="1942.98" r="21.0767" transform="rotate(-135 799.643 1942.98)" fill="white"/>
<circle cx="978.485" cy="1764.14" r="21.0767" transform="rotate(-135 978.485 1764.14)" fill="white"/>
<circle cx="889.064" cy="1853.56" r="21.0767" transform="rotate(-135 889.064 1853.56)" fill="white"/>
<circle cx="1067.91" cy="1674.72" r="21.0767" transform="rotate(-135 1067.91 1674.72)" fill="white"/>
</g>
<defs>
<clipPath id="clip0_5_20122">
<rect width="1500" height="2000" fill="white" transform="translate(1500 2000) rotate(-180)"/>
</clipPath>
</defs>
</svg>
