<?xml version="1.0" encoding="utf-8"?>
<!-- Svg Vector Icons : http://www.onlinewebfonts.com/icon -->
<!DOCTYPE svg PUBLIC "-//W3C//DTD SVG 1.1//EN" "http://www.w3.org/Graphics/SVG/1.1/DTD/svg11.dtd">
<svg version="1.1" xmlns="http://www.w3.org/2000/svg" xmlns:xlink="http://www.w3.org/1999/xlink" x="0px" y="0px" viewBox="0 0 1000 1000" enable-background="new 0 0 1000 1000" xml:space="preserve">
<metadata> Svg Vector Icons : http://www.onlinewebfonts.com/icon </metadata>
<g><path d="M827.7,296.8H602.3c-7.4,0-13.3,6-13.3,13.4c0,7.4,6,13.3,13.3,13.3h225.4c7.4,0,13.4-6,13.4-13.3C841.1,302.8,835.1,296.8,827.7,296.8z"/><path d="M841.1,420.1c0-7.4-6-13.4-13.4-13.4H602.3c-7.4,0-13.3,6-13.3,13.4c0,7.4,6,13.4,13.3,13.4h225.4C835.1,433.4,841.1,427.5,841.1,420.1z"/><path d="M589,530c0,7.4,6,13.4,13.3,13.4h28.3c11.8-10.1,24.6-19.1,38.2-26.7h-66.6C594.9,516.6,589,522.6,589,530z"/><path d="M548.5,710.8c-8.5,1-16.8,2-25.1,3.1V173.9c13.5-13.2,80.2-36.3,190-36.3c109.8,0,176.5,23.1,190,36.3v345c25.8,15.1,48.4,35,66.8,58.5V169.7c0-73-138.3-98.9-256.7-98.9c-82.7,0-175.2,12.7-223.3,45.2c-48.2-32.5-140.6-45.2-223.4-45.2C148.3,70.8,10,96.7,10,169.7v583.2c0,9.9,4.4,19.2,11.9,25.5c7.5,6.3,17.5,9,27.2,7.3c65.7-11.4,140.9-17.4,217.7-17.4c76.7,0,152,6,217.7,17.4c0.9,0.2,1.8,0.2,2.7,0.3c0.7,0.1,1.4,0.1,2.1,0.1c0.3,0,0.6,0.1,0.9,0.1c1.8,0,3.6-0.2,5.3-0.5c0.1,0,0.2,0,0.4,0c18.9-3.3,38.6-6.1,58.9-8.4c-4.2-17.6-6.4-36-6.4-54.8C548.2,718.6,548.3,714.7,548.5,710.8z M456.7,714c-59.4-8.1-124.2-12.4-190-12.4c-65.7,0-130.6,4.2-190,12.4V173.9c13.5-13.2,80.2-36.3,190-36.3c109.8,0,176.5,23.1,190,36.3V714z"/><path d="M783.7,516.6c-113.8,0-206.3,92.5-206.3,206.3c0,113.8,92.6,206.3,206.3,206.3c113.7,0,206.3-92.5,206.3-206.3C990,609.2,897.5,516.6,783.7,516.6z M783.7,897.4c-96.2,0-174.5-78.3-174.5-174.5c0-96.2,78.3-174.5,174.5-174.5c96.2,0,174.5,78.3,174.5,174.5C958.2,819.1,879.9,897.4,783.7,897.4z"/><path d="M886.7,698.9h-76.3v-79.8c0-7-5.6-12.6-12.6-12.6h-25.2c-7,0-12.6,5.6-12.6,12.6v79.8h-76.3c-7,0-12.6,5.6-12.6,12.6v23.6c0,7,5.6,12.6,12.6,12.6H760v80.6c0,7,5.6,12.6,12.6,12.6h25.2c7,0,12.6-5.6,12.6-12.6v-80.6h76.3c7,0,12.6-5.6,12.6-12.6v-23.6C899.3,704.5,893.7,698.9,886.7,698.9z"/><path d="M149.5,310.2c0,7.4,6,13.3,13.4,13.3h225.4c7.4,0,13.3-6,13.3-13.3c0-7.4-6-13.4-13.3-13.4H162.8C155.4,296.8,149.5,302.8,149.5,310.2z"/><path d="M388.3,406.7H162.8c-7.4,0-13.4,6-13.4,13.4c0,7.4,6,13.4,13.4,13.4h225.4c7.4,0,13.3-6,13.3-13.4C401.6,412.7,395.6,406.7,388.3,406.7z"/><path d="M388.3,516.6H162.8c-7.4,0-13.4,6-13.4,13.4c0,7.4,6,13.4,13.4,13.4h225.4c7.4,0,13.3-6,13.3-13.4C401.6,522.6,395.6,516.6,388.3,516.6z"/></g>
</svg>